HIERARCHY
ROOT mixamorig:Hips
{
	OFFSET -0.000008 104.274872 1.554316
	CHANNELS 6 Xposition Yposition Zposition Xrotation Yrotation Zrotation
	JOINT mixamorig:Spine
	{
		OFFSET -0.000005 10.181595 0.131519
		CHANNELS 6 Xposition Yposition Zposition Xrotation Yrotation Zrotation
		JOINT mixamorig:Spine1
		{
			OFFSET -0.000000 9.893959 -1.470707
			CHANNELS 6 Xposition Yposition Zposition Xrotation Yrotation Zrotation
			JOINT mixamorig:Spine2
			{
				OFFSET -0.000000 9.220757 -1.370641
				CHANNELS 6 Xposition Yposition Zposition Xrotation Yrotation Zrotation
				JOINT mixamorig:Neck
				{
					OFFSET 0.000001 16.740417 -2.049036
					CHANNELS 6 Xposition Yposition Zposition Xrotation Yrotation Zrotation
					JOINT mixamorig:Head
					{
						OFFSET 0.000000 9.617874 1.685006
						CHANNELS 6 Xposition Yposition Zposition Xrotation Yrotation Zrotation
						JOINT mixamorig:HeadTop_End
						{
							OFFSET 0.000002 22.037354 7.501101
							CHANNELS 6 Xposition Yposition Zposition Xrotation Yrotation Zrotation
							End Site
							{
								OFFSET 0.000168 2310.654297 -282.823242
							}
						}
					}
				}
				JOINT mixamorig:RightShoulder
				{
					OFFSET -4.569970 11.014908 -2.160885
					CHANNELS 6 Xposition Yposition Zposition Xrotation Yrotation Zrotation
					JOINT mixamorig:RightArm
					{
						OFFSET -10.592851 -0.524811 -2.232101
						CHANNELS 6 Xposition Yposition Zposition Xrotation Yrotation Zrotation
						JOINT mixamorig:RightForeArm
						{
							OFFSET -27.841511 0.000031 -0.000004
							CHANNELS 6 Xposition Yposition Zposition Xrotation Yrotation Zrotation
							JOINT mixamorig:RightHand
							{
								OFFSET -28.328831 -0.000015 0.000015
								CHANNELS 6 Xposition Yposition Zposition Xrotation Yrotation Zrotation
								JOINT mixamorig:RightHandThumb1
								{
									OFFSET -2.464806 -1.573990 2.681852
									CHANNELS 6 Xposition Yposition Zposition Xrotation Yrotation Zrotation
									JOINT mixamorig:RightHandThumb2
									{
										OFFSET -3.215179 -1.872803 1.924282
										CHANNELS 6 Xposition Yposition Zposition Xrotation Yrotation Zrotation
										JOINT mixamorig:RightHandThumb3
										{
											OFFSET -2.654831 -1.527969 1.512609
											CHANNELS 6 Xposition Yposition Zposition Xrotation Yrotation Zrotation
											JOINT mixamorig:RightHandThumb4
											{
												OFFSET -2.018814 -1.152008 1.108052
												CHANNELS 6 Xposition Yposition Zposition Xrotation Yrotation Zrotation
												End Site
												{
													OFFSET -188.809540 -114.533607 132.431396
												}
											}
										}
									}
								}
								JOINT mixamorig:RightHandIndex1
								{
									OFFSET -9.108284 -0.517868 2.259835
									CHANNELS 6 Xposition Yposition Zposition Xrotation Yrotation Zrotation
									JOINT mixamorig:RightHandIndex2
									{
										OFFSET -3.699989 0.000000 0.001215
										CHANNELS 6 Xposition Yposition Zposition Xrotation Yrotation Zrotation
										JOINT mixamorig:RightHandIndex3
										{
											OFFSET -2.850006 0.000031 -0.000522
											CHANNELS 6 Xposition Yposition Zposition Xrotation Yrotation Zrotation
											JOINT mixamorig:RightHandIndex4
											{
												OFFSET -2.772186 -0.000015 -0.000020
												CHANNELS 6 Xposition Yposition Zposition Xrotation Yrotation Zrotation
												End Site
												{
													OFFSET -277.218445 0.000000 -0.050231
												}
											}
										}
									}
								}
								JOINT mixamorig:RightHandMiddle1
								{
									OFFSET -9.532516 -0.000031 -0.000023
									CHANNELS 6 Xposition Yposition Zposition Xrotation Yrotation Zrotation
									JOINT mixamorig:RightHandMiddle2
									{
										OFFSET -3.700005 -0.000015 0.003713
										CHANNELS 6 Xposition Yposition Zposition Xrotation Yrotation Zrotation
										JOINT mixamorig:RightHandMiddle3
										{
											OFFSET -2.949974 0.000015 -0.002054
											CHANNELS 6 Xposition Yposition Zposition Xrotation Yrotation Zrotation
											JOINT mixamorig:RightHandMiddle4
											{
												OFFSET -2.946640 0.000000 -0.000156
												CHANNELS 6 Xposition Yposition Zposition Xrotation Yrotation Zrotation
												End Site
												{
													OFFSET -294.664337 0.000000 -0.113670
												}
											}
										}
									}
								}
								JOINT mixamorig:RightHandRing1
								{
									OFFSET -9.103600 -0.043076 -1.865134
									CHANNELS 6 Xposition Yposition Zposition Xrotation Yrotation Zrotation
									JOINT mixamorig:RightHandRing2
									{
										OFFSET -3.379288 0.000000 -0.001055
										CHANNELS 6 Xposition Yposition Zposition Xrotation Yrotation Zrotation
										JOINT mixamorig:RightHandRing3
										{
											OFFSET -2.889687 -0.000015 0.000379
											CHANNELS 6 Xposition Yposition Zposition Xrotation Yrotation Zrotation
											JOINT mixamorig:RightHandRing4
											{
												OFFSET -2.638809 -0.000015 0.000941
												CHANNELS 6 Xposition Yposition Zposition Xrotation Yrotation Zrotation
												End Site
												{
													OFFSET -263.880371 0.000000 0.516020
												}
											}
										}
									}
								}
								JOINT mixamorig:RightHandPinky1
								{
									OFFSET -8.076683 -0.486710 -3.806280
									CHANNELS 6 Xposition Yposition Zposition Xrotation Yrotation Zrotation
									JOINT mixamorig:RightHandPinky2
									{
										OFFSET -3.600014 -0.000015 -0.003747
										CHANNELS 6 Xposition Yposition Zposition Xrotation Yrotation Zrotation
										JOINT mixamorig:RightHandPinky3
										{
											OFFSET -2.099983 0.000000 -0.005739
											CHANNELS 6 Xposition Yposition Zposition Xrotation Yrotation Zrotation
											JOINT mixamorig:RightHandPinky4
											{
												OFFSET -2.115768 -0.000031 -0.003680
												CHANNELS 6 Xposition Yposition Zposition Xrotation Yrotation Zrotation
												End Site
												{
													OFFSET -211.577087 0.000000 -0.350686
												}
											}
										}
									}
								}
							}
						}
					}
				}
				JOINT mixamorig:LeftShoulder
				{
					OFFSET 4.570447 11.014725 -2.160855
					CHANNELS 6 Xposition Yposition Zposition Xrotation Yrotation Zrotation
					JOINT mixamorig:LeftArm
					{
						OFFSET 10.592371 -0.524597 -2.232119
						CHANNELS 6 Xposition Yposition Zposition Xrotation Yrotation Zrotation
						JOINT mixamorig:LeftForeArm
						{
							OFFSET 27.841532 -0.000031 0.000026
							CHANNELS 6 Xposition Yposition Zposition Xrotation Yrotation Zrotation
							JOINT mixamorig:LeftHand
							{
								OFFSET 28.328846 -0.000061 0.000022
								CHANNELS 6 Xposition Yposition Zposition Xrotation Yrotation Zrotation
								JOINT mixamorig:LeftHandThumb1
								{
									OFFSET 2.466141 -1.576172 2.681732
									CHANNELS 6 Xposition Yposition Zposition Xrotation Yrotation Zrotation
									JOINT mixamorig:LeftHandThumb2
									{
										OFFSET 3.217812 -1.872070 1.916482
										CHANNELS 6 Xposition Yposition Zposition Xrotation Yrotation Zrotation
										JOINT mixamorig:LeftHandThumb3
										{
											OFFSET 2.656029 -1.528778 1.514513
											CHANNELS 6 Xposition Yposition Zposition Xrotation Yrotation Zrotation
											JOINT mixamorig:LeftHandThumb4
											{
												OFFSET 2.020889 -1.154053 1.115139
												CHANNELS 6 Xposition Yposition Zposition Xrotation Yrotation Zrotation
												End Site
												{
													OFFSET 190.885437 -115.081749 130.048782
												}
											}
										}
									}
								}
								JOINT mixamorig:LeftHandIndex1
								{
									OFFSET 9.109314 -0.518021 2.259871
									CHANNELS 6 Xposition Yposition Zposition Xrotation Yrotation Zrotation
									JOINT mixamorig:LeftHandIndex2
									{
										OFFSET 3.699989 0.000000 -0.000322
										CHANNELS 6 Xposition Yposition Zposition Xrotation Yrotation Zrotation
										JOINT mixamorig:LeftHandIndex3
										{
											OFFSET 2.850006 0.000000 0.000352
											CHANNELS 6 Xposition Yposition Zposition Xrotation Yrotation Zrotation
											JOINT mixamorig:LeftHandIndex4
											{
												OFFSET 2.774864 -0.000031 -0.000027
												CHANNELS 6 Xposition Yposition Zposition Xrotation Yrotation Zrotation
												End Site
												{
													OFFSET 277.486267 0.000000 -0.009857
												}
											}
										}
									}
								}
								JOINT mixamorig:LeftHandMiddle1
								{
									OFFSET 9.533394 0.000061 0.000044
									CHANNELS 6 Xposition Yposition Zposition Xrotation Yrotation Zrotation
									JOINT mixamorig:LeftHandMiddle2
									{
										OFFSET 3.699989 -0.000015 -0.000231
										CHANNELS 6 Xposition Yposition Zposition Xrotation Yrotation Zrotation
										JOINT mixamorig:LeftHandMiddle3
										{
											OFFSET 2.949997 -0.000015 -0.000059
											CHANNELS 6 Xposition Yposition Zposition Xrotation Yrotation Zrotation
											JOINT mixamorig:LeftHandMiddle4
											{
												OFFSET 2.952896 0.000031 0.000063
												CHANNELS 6 Xposition Yposition Zposition Xrotation Yrotation Zrotation
												End Site
												{
													OFFSET 295.289337 0.000000 0.022810
												}
											}
										}
									}
								}
								JOINT mixamorig:LeftHandRing1
								{
									OFFSET 9.104523 -0.042999 -1.865074
									CHANNELS 6 Xposition Yposition Zposition Xrotation Yrotation Zrotation
									JOINT mixamorig:LeftHandRing2
									{
										OFFSET 3.150009 -0.000031 0.000043
										CHANNELS 6 Xposition Yposition Zposition Xrotation Yrotation Zrotation
										JOINT mixamorig:LeftHandRing3
										{
											OFFSET 2.949982 -0.000015 0.000040
											CHANNELS 6 Xposition Yposition Zposition Xrotation Yrotation Zrotation
											JOINT mixamorig:LeftHandRing4
											{
												OFFSET 2.644348 0.000000 0.000057
												CHANNELS 6 Xposition Yposition Zposition Xrotation Yrotation Zrotation
												End Site
												{
													OFFSET 264.434631 0.000000 0.012105
												}
											}
										}
									}
								}
								JOINT mixamorig:LeftHandPinky1
								{
									OFFSET 8.077789 -0.486847 -3.806259
									CHANNELS 6 Xposition Yposition Zposition Xrotation Yrotation Zrotation
									JOINT mixamorig:LeftHandPinky2
									{
										OFFSET 3.599953 0.000031 0.014727
										CHANNELS 6 Xposition Yposition Zposition Xrotation Yrotation Zrotation
										JOINT mixamorig:LeftHandPinky3
										{
											OFFSET 2.100021 0.000015 0.007705
											CHANNELS 6 Xposition Yposition Zposition Xrotation Yrotation Zrotation
											JOINT mixamorig:LeftHandPinky4
											{
												OFFSET 2.125504 0.000031 0.007517
												CHANNELS 6 Xposition Yposition Zposition Xrotation Yrotation Zrotation
												End Site
												{
													OFFSET 212.550781 0.000000 0.625752
												}
											}
										}
									}
								}
							}
						}
					}
				}
			}
		}
	}
	JOINT mixamorig:RightUpLeg
	{
		OFFSET -8.207787 -6.751648 -1.599560
		CHANNELS 6 Xposition Yposition Zposition Xrotation Yrotation Zrotation
		JOINT mixamorig:RightLeg
		{
			OFFSET -0.000002 -44.370117 0.345942
			CHANNELS 6 Xposition Yposition Zposition Xrotation Yrotation Zrotation
			JOINT mixamorig:RightFoot
			{
				OFFSET 0.000003 -44.423679 -3.043532
				CHANNELS 6 Xposition Yposition Zposition Xrotation Yrotation Zrotation
				JOINT mixamorig:RightToeBase
				{
					OFFSET -0.000002 -8.728671 10.710558
					CHANNELS 6 Xposition Yposition Zposition Xrotation Yrotation Zrotation
					JOINT mixamorig:RightToe_End
					{
						OFFSET -0.000001 -0.000679 9.278119
						CHANNELS 6 Xposition Yposition Zposition Xrotation Yrotation Zrotation
						End Site
						{
							OFFSET 0.000000 -0.067690 927.812134
						}
					}
				}
			}
		}
	}
	JOINT mixamorig:LeftUpLeg
	{
		OFFSET 8.207793 -6.751686 -1.599556
		CHANNELS 6 Xposition Yposition Zposition Xrotation Yrotation Zrotation
		JOINT mixamorig:LeftLeg
		{
			OFFSET -0.000004 -44.370014 0.346954
			CHANNELS 6 Xposition Yposition Zposition Xrotation Yrotation Zrotation
			JOINT mixamorig:LeftFoot
			{
				OFFSET -0.000001 -44.423672 -3.044401
				CHANNELS 6 Xposition Yposition Zposition Xrotation Yrotation Zrotation
				JOINT mixamorig:LeftToeBase
				{
					OFFSET -0.000002 -8.728669 10.710558
					CHANNELS 6 Xposition Yposition Zposition Xrotation Yrotation Zrotation
					JOINT mixamorig:LeftToe_End
					{
						OFFSET -0.000003 -0.000679 9.278133
						CHANNELS 6 Xposition Yposition Zposition Xrotation Yrotation Zrotation
						End Site
						{
							OFFSET 0.000000 -0.068021 927.813477
						}
					}
				}
			}
		}
	}
}
MOTION
Frames: 3
Frame Time: 0.033333
0.000006 104.270477 1.554256 0.000010 0.000003 -0.000113 -0.000005 10.181587 0.131522 0.000001 -0.000003 0.000084 -0.000000 9.893967 -1.470711 0.000001 0.000000 -0.000000 -0.000000 9.220802 -1.370642 0.000000 -0.000000 -0.000000 0.000001 16.740433 -2.049030 0.000000 -0.000000 -0.000000 0.000000 9.617859 1.685014 0.000000 0.000000 0.000000 0.000002 22.037384 7.501101 0.000000 -0.000000 0.000000 -4.569968 11.014880 -2.160881 0.000008 0.000001 -0.000038 -10.592844 -0.524818 -2.231813 49.793483 52.422276 -25.740611 -27.841457 0.000007 0.000603 -10.154527 110.131705 14.497971 -28.328842 0.000003 0.000031 -0.000321 -0.000042 0.000003 -2.464397 -1.573723 2.682261 -54.425218 -160.923478 -26.191076 -3.215287 -1.872619 1.924672 154.380498 29.878987 -6.743126 -2.654956 -1.527904 1.513102 142.542045 27.067866 -49.350135 -2.018854 -1.151995 1.108053 -0.000003 -0.000003 0.000007 -9.108367 -0.517526 2.260127 101.690220 11.943733 -14.695883 -3.700065 0.000094 0.001306 15.740424 20.124089 -2.803817 -2.850034 -0.000132 -0.000357 -47.106298 3.540670 1.543518 -2.772158 -0.000014 -0.000013 0.000005 -0.000002 0.000004 -9.532539 0.000324 0.000256 100.488140 6.992133 -8.554926 -3.699859 -0.000012 0.003675 -6.544896 -26.775281 -1.582668 -2.949934 -0.000220 -0.001832 -63.891509 -12.425513 -7.771168 -2.946632 -0.000000 -0.000157 0.000000 -0.000000 -0.000000 -9.103625 -0.042684 -1.864862 102.727753 1.965768 -2.412940 -3.378932 -0.000092 -0.001004 -29.183568 -62.074890 -17.794410 -2.889552 -0.000223 0.000518 -72.966098 -33.071629 -24.721849 -2.638825 -0.000013 0.000938 -0.000002 -0.000000 0.000000 -8.076639 -0.486302 -3.805978 108.015863 -5.273785 7.405722 -3.599639 -0.000147 -0.003672 -48.254723 -69.801016 -35.008165 -2.099778 -0.000257 -0.005602 -72.694291 -37.011733 -27.893183 -2.115756 -0.000056 -0.003683 0.000009 -0.000000 -0.000002 4.570446 11.014691 -2.160851 -0.000018 0.000010 -0.000021 10.592446 -0.524536 -2.232365 51.771106 -39.432946 19.730977 27.841841 0.000009 -0.000142 173.808411 -74.550627 171.870946 28.328823 -0.000028 0.000028 0.000025 -0.000095 0.000003 2.466080 -1.576179 2.681901 -20.532577 144.123453 -37.399548 3.217859 -1.871802 1.916405 159.034575 -24.597871 33.632681 2.656090 -1.528690 1.514472 140.199373 -27.430600 53.458268 2.020891 -1.154083 1.115152 0.000002 0.000004 0.000002 9.109372 -0.517822 2.259746 98.933528 -14.125422 16.474613 3.700054 0.000152 -0.000452 87.028604 -16.583018 15.772037 2.850054 0.000124 0.000210 70.099686 -16.698776 11.755501 2.774880 -0.000029 -0.000024 -0.000003 0.000005 0.000003 9.533463 0.000246 -0.000075 98.331139 -13.157823 15.192497 3.700018 0.000031 -0.000318 41.410863 -17.160442 6.526884 2.949998 0.000027 0.000118 -47.207816 -8.274708 -3.621748 2.952869 -0.000024 0.000063 0.000000 0.000001 0.000005 9.104578 -0.042794 -1.865213 100.673027 -11.360894 13.683937 3.149858 0.000033 -0.000110 394.691907 69.460387 -24.435243 2.950003 0.000019 0.000153 303.608985 21.842325 11.810317 2.644323 0.000016 0.000053 0.000002 -0.000001 0.000001 8.077846 -0.486629 -3.806400 104.448311 -12.254421 16.495440 3.599809 0.000044 0.014579 413.559539 68.943240 -38.445796 2.100013 0.000039 0.007844 305.035429 16.729290 8.467596 2.125506 0.000002 0.007511 0.000003 -0.000002 0.000002 -8.207786 -6.751667 -1.599560 -0.077001 -0.000003 0.000080 -0.000002 -44.370110 0.345938 0.153719 -0.000000 -0.000000 0.000000 -44.423679 -3.043532 -0.076700 0.000000 -0.000002 -0.000006 -8.728667 10.710559 -0.000009 -0.000000 -0.000000 -0.000001 -0.000679 9.278123 0.000000 -0.000000 -0.000000 8.207792 -6.751710 -1.599556 -0.074518 -0.000003 0.000081 -0.000002 -44.370014 0.346960 0.148822 0.000002 0.000000 -0.000001 -44.423664 -3.044403 -0.074314 0.000000 -0.000002 -0.000004 -8.728671 10.710558 0.000007 -0.000000 -0.000000 0.000000 -0.000680 9.278137 -0.000000 0.000000 -0.000001 
0.000006 104.270477 1.554256 0.000010 0.000003 -0.000113 -0.000005 10.181587 0.131522 0.000001 -0.000003 0.000084 -0.000000 9.893967 -1.470711 0.000001 0.000000 -0.000000 -0.000000 9.220802 -1.370642 0.000000 -0.000000 -0.000000 0.000001 16.740433 -2.049030 0.000000 -0.000000 -0.000000 0.000000 9.617859 1.685014 0.000000 0.000000 0.000000 0.000002 22.037384 7.501101 0.000000 -0.000000 0.000000 -4.569968 11.014880 -2.160881 0.000008 0.000001 -0.000038 -10.592831 -0.524823 -2.231814 53.630020 55.620061 -29.857277 -27.841461 0.000009 0.000597 -11.121619 107.728708 15.189986 -28.328835 0.000022 0.000029 -0.000324 -0.000044 0.000006 -2.464479 -1.573636 2.682230 -58.486657 -178.788411 -47.492897 -3.215291 -1.872641 1.924670 158.692533 28.669316 -13.956587 -2.654925 -1.527932 1.513128 144.426918 25.529994 -61.070695 -2.018836 -1.152014 1.108057 -0.000004 0.000004 -0.000000 -9.108388 -0.517581 2.260191 111.195247 17.086777 -24.815117 -3.700075 0.000301 0.001558 102.824625 16.048629 -20.008144 -2.850095 0.000356 -0.000240 99.375072 12.894187 -15.171665 -2.772155 -0.000015 -0.000024 0.000003 0.000003 -0.000001 -9.532579 0.000279 0.000319 108.620703 15.454502 -21.590856 -3.700072 0.000340 0.004011 103.599442 9.831065 -12.357083 -2.950072 0.000350 -0.001768 101.679250 9.583714 -11.745018 -2.946625 0.000015 -0.000159 0.000000 0.000004 -0.000000 -9.103687 -0.042755 -1.864828 105.141630 16.351459 -21.205458 -3.379287 0.000349 -0.000831 94.016618 1.320284 -1.432730 -2.889698 0.000363 0.000592 93.863765 -1.547830 1.613326 -2.638803 -0.000026 0.000957 0.000001 -0.000002 -0.000002 -8.076737 -0.486373 -3.805967 98.661557 16.636418 -19.141180 -3.599961 0.000329 -0.003533 93.319871 -5.811373 6.453096 -2.099919 0.000380 -0.005548 91.666364 -11.626488 12.128138 -2.115761 -0.000052 -0.003688 0.000001 0.000002 -0.000000 4.570446 11.014691 -2.160851 -0.000018 0.000010 -0.000021 10.592469 -0.524526 -2.232388 55.751785 -46.282943 25.476693 27.841824 -0.000005 -0.000140 170.156774 -77.506494 167.753722 28.328827 -0.000029 0.000020 0.000020 -0.000089 0.000002 2.465910 -1.576087 2.681911 -49.550369 174.626039 15.343110 3.217859 -1.871915 1.916448 154.245616 -21.296084 56.067770 2.656096 -1.528702 1.514493 140.260052 -27.034319 61.367754 2.020879 -1.154086 1.115147 -0.000001 0.000001 0.000004 9.109401 -0.517839 2.259755 100.638084 -22.526379 26.980412 3.700050 0.000176 -0.000446 97.745983 -19.122984 21.857987 2.850075 0.000204 0.000221 97.706744 -16.588248 18.941960 2.774891 -0.000031 -0.000026 0.000002 0.000002 -0.000002 9.533487 0.000219 -0.000065 93.560689 -23.814406 25.284609 3.700069 0.000173 -0.000349 93.690067 -16.799248 17.897030 2.950079 0.000167 -0.000194 94.771860 -17.968956 19.505991 2.952865 -0.000014 0.000064 -0.000004 0.000001 0.000000 9.104606 -0.042875 -1.865206 86.460182 -23.494807 22.124067 3.150051 0.000210 -0.000098 453.168708 -10.596954 11.197994 2.950031 0.000215 -0.000101 457.387607 -9.992019 11.364674 2.644318 0.000046 0.000061 -0.000001 -0.000002 -0.000000 8.077864 -0.486761 -3.806374 74.441084 -28.127634 22.050583 3.600019 0.000174 0.014565 440.500811 -15.316156 13.431342 2.100034 0.000187 0.007549 441.093234 -11.688626 10.421323 2.125508 -0.000017 0.007519 -0.000000 0.000002 0.000001 -8.207786 -6.751667 -1.599560 -0.077001 -0.000003 0.000080 -0.000002 -44.370110 0.345938 0.153719 -0.000000 -0.000000 0.000000 -44.423679 -3.043532 -0.076700 0.000000 -0.000002 -0.000006 -8.728667 10.710559 -0.000009 -0.000000 -0.000000 -0.000001 -0.000679 9.278123 0.000000 -0.000000 -0.000000 8.207792 -6.751710 -1.599556 -0.074518 -0.000003 0.000081 -0.000002 -44.370014 0.346960 0.148822 0.000002 0.000000 -0.000001 -44.423664 -3.044403 -0.074314 0.000000 -0.000002 -0.000004 -8.728671 10.710558 0.000007 -0.000000 -0.000000 0.000000 -0.000680 9.278137 -0.000000 0.000000 -0.000001 
0.000006 104.270477 1.554256 0.000010 0.000003 -0.000113 -0.000005 10.181587 0.131522 0.000001 -0.000003 0.000084 -0.000000 9.893967 -1.470711 0.000001 0.000000 -0.000000 -0.000000 9.220802 -1.370642 0.000000 -0.000000 -0.000000 0.000001 16.740433 -2.049030 0.000000 -0.000000 -0.000000 0.000000 9.617859 1.685014 0.000000 0.000000 0.000000 0.000002 22.037384 7.501101 0.000000 -0.000000 0.000000 -4.569968 11.014880 -2.160881 0.000008 0.000001 -0.000038 -10.592827 -0.524834 -2.231785 57.331057 59.016386 -34.385457 -27.841480 0.000004 0.000596 -8.530817 105.658102 11.235416 -28.328835 0.000023 0.000022 -0.000321 -0.000044 0.000007 -2.464732 -1.573887 2.681824 -11.929138 -11.818011 -58.184503 -3.214851 -1.872703 1.924254 -9.680987 -57.655724 -45.727604 -2.654942 -1.527931 1.513086 156.801582 24.226853 -39.879856 -2.018827 -1.152015 1.108061 -0.000004 0.000000 0.000005 -9.108361 -0.517521 2.260041 39.890607 23.856217 -78.943880 -3.700001 0.000348 0.001338 31.119961 5.535319 -67.566834 -2.850003 0.000332 -0.000463 23.417150 -0.829684 -61.240425 -2.772159 0.000001 -0.000012 -0.000000 -0.000001 0.000001 -9.532493 0.000261 0.000030 27.007789 -2.426290 -51.523122 -3.700032 0.000366 0.003971 53.255091 15.809323 -75.325860 -2.950057 0.000337 -0.001860 49.200769 13.954047 -67.491353 -2.946627 0.000014 -0.000146 0.000002 -0.000001 0.000004 -9.103568 -0.042743 -1.865079 29.050294 -7.451349 -48.773322 -3.379369 0.000253 -0.000803 39.673236 35.309640 -70.212535 -2.889828 0.000240 0.000762 55.058285 53.726651 -74.544282 -2.638816 -0.000015 0.000927 0.000000 -0.000003 -0.000000 -8.076530 -0.486363 -3.806220 39.917118 -27.219093 -28.684612 -3.600098 0.000111 -0.003692 45.558704 25.795727 11.001142 -2.099742 0.000302 -0.005703 28.796853 -39.761273 -37.600741 -2.115777 -0.000065 -0.003669 0.000001 0.000001 -0.000003 4.570446 11.014691 -2.160851 -0.000018 0.000010 -0.000021 10.592498 -0.524529 -2.232390 59.579214 -54.411278 32.796106 27.841818 -0.000006 -0.000148 170.656142 -80.012531 168.877342 28.328840 -0.000017 0.000019 0.000023 -0.000087 -0.000000 2.465887 -1.576091 2.681625 -102.365903 147.731514 110.783790 3.217885 -1.871873 1.916488 72.771486 -5.061186 45.282559 2.656127 -1.528621 1.514519 62.015836 -4.802034 51.306240 2.020899 -1.154082 1.115146 0.000003 0.000009 0.000006 9.109275 -0.517979 2.259737 46.216048 -60.838879 -20.875058 3.700026 0.000141 -0.000489 53.817448 31.103295 14.958893 2.850041 0.000164 0.000190 36.106371 36.548588 26.896349 2.774879 -0.000046 -0.000020 -0.000001 0.000001 0.000000 9.533472 0.000090 0.000034 84.508940 -52.977201 49.276994 3.699913 -0.000012 -0.000331 14.730428 -66.454647 -42.038991 2.949942 -0.000036 -0.000065 -16.991697 -80.668899 -50.159635 2.952869 -0.000033 0.000061 -0.000001 -0.000002 -0.000001 9.104578 -0.043002 -1.865092 64.538034 -59.467090 37.151738 3.150094 0.000312 0.000015 400.450904 15.805336 63.553414 2.950032 0.000226 -0.000056 373.821909 22.961583 46.061378 2.644334 0.000028 0.000055 -0.000000 -0.000000 0.000002 8.077806 -0.486856 -3.806238 32.649889 -56.817946 18.997707 3.599982 0.000015 0.014756 397.393192 -50.228176 21.264197 2.100010 0.000040 0.007837 390.449868 -61.809599 35.839171 2.125504 -0.000016 0.007508 -0.000001 0.000001 -0.000000 -8.207786 -6.751667 -1.599560 -0.077001 -0.000003 0.000080 -0.000002 -44.370110 0.345938 0.153719 -0.000000 -0.000000 0.000000 -44.423679 -3.043532 -0.076700 0.000000 -0.000002 -0.000006 -8.728667 10.710559 -0.000009 -0.000000 -0.000000 -0.000001 -0.000679 9.278123 0.000000 -0.000000 -0.000000 8.207792 -6.751710 -1.599556 -0.074518 -0.000003 0.000081 -0.000002 -44.370014 0.346960 0.148822 0.000002 0.000000 -0.000001 -44.423664 -3.044403 -0.074314 0.000000 -0.000002 -0.000004 -8.728671 10.710558 0.000007 -0.000000 -0.000000 0.000000 -0.000680 9.278137 -0.000000 0.000000 -0.000001 
